<svg xmlns="http://www.w3.org/2000/svg" width="640" height="240" viewBox="0 0 640 240">
  <rect width="640" height="240" fill="#f8fafc"/>

  <!-- Card 1: Create Pass -->
  <rect x="20" y="30" width="290" height="80" rx="12" fill="#ffffff" stroke="#e2e8f0"/>
  <text x="40" y="78" font-family="-apple-system, system-ui, sans-serif" font-size="14" fill="#475569">Need to Create a Pass?</text>
  <g transform="translate(180,50)">
    <rect width="115" height="40" rx="999" fill="#2563eb"/>
    <g transform="translate(11,8) scale(1)" fill="#ffffff">
      <svg width="24" height="24" viewBox="0 0 24 24">
        <path d="M9 4.5c-1.7 0-3 1.6-3 3.5 0 1.7 1.1 3.2 2.6 3.5l.4.1V13c0 .8.7 1.5 1.5 1.5h.5c.8 0 1.5-.7 1.5-1.5v-1.4l.4-.1C13.9 11.2 15 9.7 15 8c0-1.9-1.3-3.5-3-3.5zM6.5 15c-.8 0-1.5.7-1.5 1.5v.5c0 1.1.9 2 2 2s2-.9 2-2v-.5c0-.8-.7-1.5-1.5-1.5h-1zM18 13.5c-1.7 0-3 1.6-3 3.5 0 1.7 1.1 3.2 2.6 3.5l.4.1v.4c0 .8.7 1.5 1.5 1.5s1.5-.7 1.5-1.5v-.4l.4-.1c1.5-.3 2.6-1.8 2.6-3.5 0-1.9-1.3-3.5-3-3.5h-3zM15.5 8.5c-.8 0-1.5.7-1.5 1.5v.5c0 1.1.9 2 2 2s2-.9 2-2V10c0-.8-.7-1.5-1.5-1.5h-1z" fill="#ffffff"/>
      </svg>
    </g>
    <text x="42" y="26" font-family="-apple-system, system-ui, sans-serif" font-size="14" font-weight="600" fill="#ffffff">Create Pass</text>
  </g>

  <!-- Card 2: Log Tardy -->
  <rect x="330" y="30" width="290" height="80" rx="12" fill="#ffffff" stroke="#e2e8f0"/>
  <text x="350" y="78" font-family="-apple-system, system-ui, sans-serif" font-size="14" fill="#475569">Student Arriving Late?</text>
  <g transform="translate(490,50)">
    <rect width="105" height="40" rx="999" fill="#2563eb"/>
    <g transform="translate(11,8)" fill="#ffffff">
      <svg width="24" height="24" viewBox="0 0 24 24">
        <path d="M9 4.5c-1.7 0-3 1.6-3 3.5 0 1.7 1.1 3.2 2.6 3.5l.4.1V13c0 .8.7 1.5 1.5 1.5h.5c.8 0 1.5-.7 1.5-1.5v-1.4l.4-.1C13.9 11.2 15 9.7 15 8c0-1.9-1.3-3.5-3-3.5zM6.5 15c-.8 0-1.5.7-1.5 1.5v.5c0 1.1.9 2 2 2s2-.9 2-2v-.5c0-.8-.7-1.5-1.5-1.5h-1zM18 13.5c-1.7 0-3 1.6-3 3.5 0 1.7 1.1 3.2 2.6 3.5l.4.1v.4c0 .8.7 1.5 1.5 1.5s1.5-.7 1.5-1.5v-.4l.4-.1c1.5-.3 2.6-1.8 2.6-3.5 0-1.9-1.3-3.5-3-3.5h-3zM15.5 8.5c-.8 0-1.5.7-1.5 1.5v.5c0 1.1.9 2 2 2s2-.9 2-2V10c0-.8-.7-1.5-1.5-1.5h-1z" fill="#ffffff"/>
      </svg>
    </g>
    <text x="42" y="26" font-family="-apple-system, system-ui, sans-serif" font-size="14" font-weight="600" fill="#ffffff">Log Tardy</text>
  </g>

  <!-- Standalone footprint icon at large size -->
  <text x="20" y="155" font-family="-apple-system, system-ui, sans-serif" font-size="13" fill="#64748b">Footprint icon (large preview):</text>
  <g transform="translate(20,165)">
    <rect width="70" height="60" rx="8" fill="#2563eb"/>
    <g transform="translate(11,6)" fill="#ffffff">
      <svg width="48" height="48" viewBox="0 0 24 24">
        <path d="M9 4.5c-1.7 0-3 1.6-3 3.5 0 1.7 1.1 3.2 2.6 3.5l.4.1V13c0 .8.7 1.5 1.5 1.5h.5c.8 0 1.5-.7 1.5-1.5v-1.4l.4-.1C13.9 11.2 15 9.7 15 8c0-1.9-1.3-3.5-3-3.5zM6.5 15c-.8 0-1.5.7-1.5 1.5v.5c0 1.1.9 2 2 2s2-.9 2-2v-.5c0-.8-.7-1.5-1.5-1.5h-1zM18 13.5c-1.7 0-3 1.6-3 3.5 0 1.7 1.1 3.2 2.6 3.5l.4.1v.4c0 .8.7 1.5 1.5 1.5s1.5-.7 1.5-1.5v-.4l.4-.1c1.5-.3 2.6-1.8 2.6-3.5 0-1.9-1.3-3.5-3-3.5h-3zM15.5 8.5c-.8 0-1.5.7-1.5 1.5v.5c0 1.1.9 2 2 2s2-.9 2-2V10c0-.8-.7-1.5-1.5-1.5h-1z" fill="#ffffff"/>
      </svg>
    </g>
  </g>
</svg>
